<svg id="Capa_1" data-name="Capa 1" xmlns="http://www.w3.org/2000/svg" viewBox="0 0 70.76 67.37"><defs><style>.cls-1{fill:#f33;}</style></defs><path class="cls-1" d="M58.52,43.76a1.56,1.56,0,0,0,1.55-1.55V28.53a8.57,8.57,0,0,0-1.22-4.47,8,8,0,0,0-2.26-2.4,32.41,32.41,0,0,0-4.93-2.72V14a3.88,3.88,0,0,0-3.87-3.87H23.09A3.88,3.88,0,0,0,19.22,14v5.09L15.67,21l-.11.05a8.44,8.44,0,0,0-4.4,7.44V50.79a7.83,7.83,0,0,0,6.65,7.75l.25,0H52.82a6.62,6.62,0,0,0,4.89-1.92c2.38-2.42,2.36-6.23,2.36-6.4a1.55,1.55,0,0,0-3.1,0,6.71,6.71,0,0,1-1.48,4.19,3.54,3.54,0,0,1-2.67,1H18.2a4.74,4.74,0,0,1-3.94-4.67v-21l5.28,3.32a1.55,1.55,0,0,0,.91.57l10,6.29a9.46,9.46,0,0,0,10,0L57,29.75V42.21A1.55,1.55,0,0,0,58.52,43.76ZM54.83,24.22a4.57,4.57,0,0,1,1.37,1.46,4.83,4.83,0,0,1,.35.68l-4.89,3v-7A26.31,26.31,0,0,1,54.83,24.22ZM17,23.74l.08,0,2.1-1.13v6.65l-4.54-2.86A5.28,5.28,0,0,1,17,23.74ZM38.8,37.34a6.37,6.37,0,0,1-6.69,0l-9.79-6.16V19.94h0V14a.78.78,0,0,1,.77-.77h24.7a.78.78,0,0,1,.77.77v6h0V31.31Z"/><circle class="cls-1" cx="28.57" cy="21.89" r="1.81"/><circle class="cls-1" cx="35.69" cy="21.89" r="1.81"/><circle class="cls-1" cx="42.81" cy="21.89" r="1.81"/></svg>