<svg id="Capa_1" data-name="Capa 1" xmlns="http://www.w3.org/2000/svg" viewBox="0 0 70.76 67.37"><defs><style>.cls-1{fill:#f33;}</style></defs><path class="cls-1" d="M18.08,48.5l-4,4.06a4.45,4.45,0,0,0-1.16-.17,4.63,4.63,0,1,0,4.38,3.38l4.05-4.05a2.28,2.28,0,0,0-3.22-3.22Zm0,0"/><path class="cls-1" d="M35.62,6.89a4.54,4.54,0,0,0-2.28,8.47v7.45a2.28,2.28,0,1,0,4.55,0V15.36a4.54,4.54,0,0,0-2.27-8.47Zm0,0"/><path class="cls-1" d="M58.36,52.39a4.45,4.45,0,0,0-1.16.17L53.15,48.5a2.28,2.28,0,0,0-3.22,3.22l4,4.05a4.54,4.54,0,1,0,4.38-3.38Zm0,0"/><path class="cls-1" d="M12.87,30V48.89l2.8-2.8a5.69,5.69,0,1,1,8,8L21.86,56l11.48,4.6V38.17Zm0,0"/><path class="cls-1" d="M41.3,18.27v4.54a5.69,5.69,0,1,1-11.37,0V18.27L12.87,25.09l22.75,9.1,22.74-9.1Zm0,0"/><path class="cls-1" d="M47.52,54.13a5.69,5.69,0,0,1,8-8l2.8,2.8V30L37.89,38.17V60.58L49.37,56Zm0,0"/></svg>