<svg id="Capa_1" data-name="Capa 1" xmlns="http://www.w3.org/2000/svg" viewBox="0 0 70.76 67.37"><defs><style>.cls-1{fill:#f33;}</style></defs><polygon class="cls-1" points="25.49 24.85 45.74 24.85 45.74 45.1 25.49 45.1 25.49 24.85 25.49 24.85"/><path class="cls-1" d="M50.81,50.17H20.42V19.79H50.81V50.17ZM58.4,37.51A2.39,2.39,0,0,0,60.93,35a2.53,2.53,0,0,0-2.53-2.53H55.87V27.38H58.4a2.39,2.39,0,0,0,2.53-2.53,2.53,2.53,0,0,0-2.53-2.53H55.87V19.79a5.08,5.08,0,0,0-5.06-5.07H48.27V12.19a2.53,2.53,0,0,0-5.06,0v2.53H38.15V12.19a2.54,2.54,0,0,0-2.53-2.53,2.4,2.4,0,0,0-2.54,2.53v2.53H28V12.19a2.53,2.53,0,0,0-2.53-2.53A2.39,2.39,0,0,0,23,12.19v2.53H20.42a5.08,5.08,0,0,0-5.06,5.07v2.53H12.83a2.39,2.39,0,0,0-2.53,2.53,2.53,2.53,0,0,0,2.53,2.53h2.53v5.07H12.83A2.39,2.39,0,0,0,10.3,35a2.54,2.54,0,0,0,2.53,2.53h2.53v5.06H12.83A2.39,2.39,0,0,0,10.3,45.1a2.54,2.54,0,0,0,2.53,2.54h2.53v2.53a5.08,5.08,0,0,0,5.06,5.06H23v2.53a2.54,2.54,0,0,0,2.53,2.54A2.4,2.4,0,0,0,28,57.76V55.23h5.06v2.53a2.55,2.55,0,0,0,2.54,2.54,2.4,2.4,0,0,0,2.53-2.54V55.23h5.06v2.53a2.53,2.53,0,1,0,5.06,0V55.23h2.54a5.08,5.08,0,0,0,5.06-5.06V47.64H58.4a2.4,2.4,0,0,0,2.53-2.54,2.54,2.54,0,0,0-2.53-2.53H55.87V37.51Z"/></svg>