<svg xmlns="http://www.w3.org/2000/svg" xmlns:xlink="http://www.w3.org/1999/xlink" viewBox="0 0 464.38 893.22"><defs><style>.cls-1{isolation:isolate;}.cls-2{mix-blend-mode:multiply;fill:url(#linear-gradient);}.cls-3{fill:url(#linear-gradient-2);}.cls-4,.cls-5{mix-blend-mode:darken;}.cls-5{fill:url(#linear-gradient-3);}.cls-6{fill:url(#linear-gradient-4);}.cls-7{fill:#231f20;}.cls-8{fill:url(#linear-gradient-5);}</style><linearGradient id="linear-gradient" x1="196.11" y1="761.91" x2="-33.07" y2="160.32" gradientUnits="userSpaceOnUse"><stop offset="0" stop-color="#11cfe7"/><stop offset="1" stop-color="#0563ff"/></linearGradient><linearGradient id="linear-gradient-2" x1="56.95" y1="262.15" x2="308.4" y2="739.6" gradientUnits="userSpaceOnUse"><stop offset="0" stop-color="#ff0073"/><stop offset="1" stop-color="#0563ff"/></linearGradient><linearGradient id="linear-gradient-3" x1="129.52" y1="256.66" x2="384.16" y2="727.75" gradientUnits="userSpaceOnUse"><stop offset="0" stop-color="#fd0"/><stop offset="1" stop-color="#e70059"/></linearGradient><linearGradient id="linear-gradient-4" x1="123.67" y1="223.4" x2="448.34" y2="611.73" xlink:href="#linear-gradient-2"/><linearGradient id="linear-gradient-5" x1="169.64" y1="184.97" x2="494.31" y2="573.3" xlink:href="#linear-gradient-3"/></defs><g class="cls-1"><g id="Capa_1" data-name="Capa 1"><polygon class="cls-2" points="25.04 893.22 7.8 876.81 119.16 759.74 0 634.46 119.16 509.2 0 383.95 119.16 258.69 0 133.44 126.96 0 144.19 16.4 32.84 133.44 152 258.69 32.84 383.95 152 509.2 32.84 634.46 152 759.74 25.04 893.22"/><polygon class="cls-3" points="103.14 893.22 85.9 876.81 197.25 759.74 78.1 634.46 197.25 509.2 78.1 383.95 197.25 258.69 78.1 133.44 205.05 0 222.29 16.4 110.94 133.44 230.09 258.69 110.94 383.95 230.09 509.2 110.94 634.46 230.09 759.74 103.14 893.22"/><g class="cls-4"><polygon class="cls-5" points="181.24 893.22 163.99 876.81 275.35 759.74 156.19 634.46 275.35 509.2 156.19 383.95 275.35 258.69 156.19 133.44 283.15 0 300.39 16.4 189.03 133.44 308.19 258.69 189.03 383.95 308.19 509.2 189.03 634.46 308.19 759.74 181.24 893.22"/></g><g class="cls-4"><polygon class="cls-6" points="259.33 893.22 242.09 876.81 353.45 759.74 234.29 634.46 353.45 509.2 234.29 383.95 353.45 258.69 234.29 133.44 361.25 0 378.49 16.4 267.13 133.44 386.29 258.69 267.13 383.95 386.29 509.2 267.13 634.46 386.29 759.74 259.33 893.22"/></g><polygon class="cls-7" points="259.33 893.22 242.09 876.81 353.45 759.74 234.29 634.46 353.45 509.2 234.29 383.95 353.45 258.69 234.29 133.44 361.25 0 378.49 16.4 267.13 133.44 386.29 258.69 267.13 383.95 386.29 509.2 267.13 634.46 386.29 759.74 259.33 893.22"/><g class="cls-4"><polygon class="cls-8" points="337.43 893.22 320.19 876.81 431.54 759.74 312.39 634.46 431.54 509.2 312.39 383.95 431.54 258.69 312.39 133.44 439.34 0 456.58 16.4 345.23 133.44 464.38 258.69 345.23 383.95 464.38 509.2 345.23 634.46 464.38 759.74 337.43 893.22"/></g></g></g></svg>